<svg width="76" height="67" viewBox="0 0 76 67" fill="none" xmlns="http://www.w3.org/2000/svg">
<path d="M59.0917 62.1377L58.2809 61.9491L51.9637 58.7606L43.3649 59.2406L38.2169 61.8806L30.542 58.6063L21.9809 59.3777L17.2289 62.0691L7.8003 58.6406L5.91459 58.5034V62.6691L14.6454 66.0977L19.8689 65.6691L25.4129 62.6691L31.7677 63.5091L37.4249 65.9777L46.6649 62.6691L52.9443 63.6806L58.6014 66.252L63.6174 65.172L68.8597 62.6691H70.0289V58.4691L62.6369 60.4406L59.0917 62.1377ZM68.8409 45.8348L57.7717 48.6977L51.8317 48.2177V52.7606L55.7352 53.2234L67.0494 50.2063L75.7426 51.132V46.6748L68.8409 45.8348ZM20.2272 53.2063L24.1494 52.7606V48.2177L18.2094 48.6806L7.1403 45.852L0.257446 46.6577V51.132L8.9883 50.2234L20.2272 53.2063ZM37.1986 55.5548C38.1594 55.5616 39.1123 55.3963 40.0029 55.0683C40.8934 54.7403 41.7042 54.256 42.3888 53.6431C43.0735 53.0302 43.6187 52.3008 43.9932 51.4964C44.3677 50.6919 44.5643 49.8283 44.5717 48.9548C44.5674 47.9575 44.3099 46.9746 43.8193 46.0826C43.3286 45.1906 42.6182 44.4135 41.7432 43.812V38.6691H57.0552V31.1777H41.7432V26.4634H57.0552V22.2634H41.7432V14.3434H57.0552V10.1434H41.7432V4.67485C41.7432 4.67485 41.7432 4.67485 41.7432 4.58914C41.7432 4.50342 41.7432 4.58913 41.7432 4.50342V4.38342C41.6615 3.38463 41.163 2.45197 40.3497 1.77636C39.5365 1.10074 38.4699 0.733261 37.3683 0.749136C36.2661 0.725055 35.1966 1.09021 34.3843 1.7679C33.5721 2.44558 33.0803 3.38307 33.0123 4.38342H32.918V43.6748C31.9992 44.2795 31.2504 45.0729 30.7327 45.9904C30.2149 46.908 29.9428 47.9237 29.9386 48.9548C29.9486 50.7114 30.7244 52.3926 32.096 53.6299C33.4676 54.8672 35.3229 55.5594 37.2552 55.5548H37.1986Z" fill="#4ED4FF"/>
</svg>
